<mxfile host="Electron" modified="2023-12-15T13:55:05.800Z" agent="Mozilla/5.0 (Windows NT 10.0; Win64; x64) AppleWebKit/537.36 (KHTML, like Gecko) draw.io/22.1.2 Chrome/114.0.5735.289 Electron/25.9.4 Safari/537.36" etag="D3YRd2wVgF8_QVALWGTk" version="22.1.2" type="device">
  <diagram name="Page-1" id="lciuOYEoZHyyYyUs0HEN">
    <mxGraphModel dx="1036" dy="654" grid="1" gridSize="10" guides="1" tooltips="1" connect="1" arrows="1" fold="1" page="1" pageScale="1" pageWidth="850" pageHeight="1100" math="0" shadow="0">
      <root>
        <mxCell id="0" />
        <mxCell id="1" parent="0" />
        <mxCell id="vzgSoIwdPJrrRJUV_2uY-4" value="" style="edgeStyle=orthogonalEdgeStyle;rounded=0;orthogonalLoop=1;jettySize=auto;html=1;" edge="1" parent="1" source="vzgSoIwdPJrrRJUV_2uY-1" target="vzgSoIwdPJrrRJUV_2uY-3">
          <mxGeometry relative="1" as="geometry" />
        </mxCell>
        <mxCell id="vzgSoIwdPJrrRJUV_2uY-1" value="START" style="ellipse;whiteSpace=wrap;html=1;" vertex="1" parent="1">
          <mxGeometry x="365" y="10" width="120" height="80" as="geometry" />
        </mxCell>
        <mxCell id="vzgSoIwdPJrrRJUV_2uY-9" value="" style="edgeStyle=orthogonalEdgeStyle;rounded=0;orthogonalLoop=1;jettySize=auto;html=1;" edge="1" parent="1" source="vzgSoIwdPJrrRJUV_2uY-3" target="vzgSoIwdPJrrRJUV_2uY-8">
          <mxGeometry relative="1" as="geometry" />
        </mxCell>
        <mxCell id="vzgSoIwdPJrrRJUV_2uY-3" value="X, Y, Z, COUNT = 0" style="shape=parallelogram;perimeter=parallelogramPerimeter;whiteSpace=wrap;html=1;fixedSize=1;" vertex="1" parent="1">
          <mxGeometry x="353" y="160" width="145" height="60" as="geometry" />
        </mxCell>
        <mxCell id="vzgSoIwdPJrrRJUV_2uY-11" value="" style="edgeStyle=orthogonalEdgeStyle;rounded=0;orthogonalLoop=1;jettySize=auto;html=1;" edge="1" parent="1" source="vzgSoIwdPJrrRJUV_2uY-8">
          <mxGeometry relative="1" as="geometry">
            <mxPoint x="635" y="340" as="targetPoint" />
          </mxGeometry>
        </mxCell>
        <mxCell id="vzgSoIwdPJrrRJUV_2uY-12" value="TRUE" style="edgeLabel;html=1;align=center;verticalAlign=middle;resizable=0;points=[];" vertex="1" connectable="0" parent="vzgSoIwdPJrrRJUV_2uY-11">
          <mxGeometry x="-0.2383" y="-3" relative="1" as="geometry">
            <mxPoint as="offset" />
          </mxGeometry>
        </mxCell>
        <mxCell id="vzgSoIwdPJrrRJUV_2uY-14" value="" style="edgeStyle=orthogonalEdgeStyle;rounded=0;orthogonalLoop=1;jettySize=auto;html=1;" edge="1" parent="1" source="vzgSoIwdPJrrRJUV_2uY-8" target="vzgSoIwdPJrrRJUV_2uY-13">
          <mxGeometry relative="1" as="geometry" />
        </mxCell>
        <mxCell id="vzgSoIwdPJrrRJUV_2uY-26" value="FALSE" style="edgeLabel;html=1;align=center;verticalAlign=middle;resizable=0;points=[];" vertex="1" connectable="0" parent="vzgSoIwdPJrrRJUV_2uY-14">
          <mxGeometry x="-0.54" relative="1" as="geometry">
            <mxPoint as="offset" />
          </mxGeometry>
        </mxCell>
        <mxCell id="vzgSoIwdPJrrRJUV_2uY-8" value="X &amp;gt; 0" style="rhombus;whiteSpace=wrap;html=1;" vertex="1" parent="1">
          <mxGeometry x="330" y="290" width="190" height="100" as="geometry" />
        </mxCell>
        <mxCell id="vzgSoIwdPJrrRJUV_2uY-25" style="edgeStyle=orthogonalEdgeStyle;rounded=0;orthogonalLoop=1;jettySize=auto;html=1;entryX=0.5;entryY=0;entryDx=0;entryDy=0;" edge="1" parent="1" target="vzgSoIwdPJrrRJUV_2uY-13">
          <mxGeometry relative="1" as="geometry">
            <mxPoint x="700" y="370" as="sourcePoint" />
            <Array as="points">
              <mxPoint x="700" y="430" />
              <mxPoint x="425" y="430" />
            </Array>
          </mxGeometry>
        </mxCell>
        <mxCell id="vzgSoIwdPJrrRJUV_2uY-10" value="COUNT++" style="whiteSpace=wrap;html=1;" vertex="1" parent="1">
          <mxGeometry x="635" y="340" width="120" height="60" as="geometry" />
        </mxCell>
        <mxCell id="vzgSoIwdPJrrRJUV_2uY-17" value="FALSE" style="edgeStyle=orthogonalEdgeStyle;rounded=0;orthogonalLoop=1;jettySize=auto;html=1;" edge="1" parent="1" source="vzgSoIwdPJrrRJUV_2uY-13" target="vzgSoIwdPJrrRJUV_2uY-16">
          <mxGeometry relative="1" as="geometry" />
        </mxCell>
        <mxCell id="vzgSoIwdPJrrRJUV_2uY-20" value="TRUE" style="edgeStyle=orthogonalEdgeStyle;rounded=0;orthogonalLoop=1;jettySize=auto;html=1;" edge="1" parent="1" source="vzgSoIwdPJrrRJUV_2uY-13">
          <mxGeometry relative="1" as="geometry">
            <mxPoint x="635" y="520" as="targetPoint" />
          </mxGeometry>
        </mxCell>
        <mxCell id="vzgSoIwdPJrrRJUV_2uY-13" value="Y &amp;gt; 0" style="rhombus;whiteSpace=wrap;html=1;" vertex="1" parent="1">
          <mxGeometry x="330" y="470" width="190" height="100" as="geometry" />
        </mxCell>
        <mxCell id="vzgSoIwdPJrrRJUV_2uY-18" value="" style="edgeStyle=orthogonalEdgeStyle;rounded=0;orthogonalLoop=1;jettySize=auto;html=1;" edge="1" parent="1" source="vzgSoIwdPJrrRJUV_2uY-16">
          <mxGeometry relative="1" as="geometry">
            <mxPoint x="425" y="870" as="targetPoint" />
          </mxGeometry>
        </mxCell>
        <mxCell id="vzgSoIwdPJrrRJUV_2uY-27" value="FALSE" style="edgeLabel;html=1;align=center;verticalAlign=middle;resizable=0;points=[];" vertex="1" connectable="0" parent="vzgSoIwdPJrrRJUV_2uY-18">
          <mxGeometry x="-0.4267" y="-1" relative="1" as="geometry">
            <mxPoint as="offset" />
          </mxGeometry>
        </mxCell>
        <mxCell id="vzgSoIwdPJrrRJUV_2uY-22" value="" style="edgeStyle=orthogonalEdgeStyle;rounded=0;orthogonalLoop=1;jettySize=auto;html=1;" edge="1" parent="1" source="vzgSoIwdPJrrRJUV_2uY-16">
          <mxGeometry relative="1" as="geometry">
            <mxPoint x="635" y="700" as="targetPoint" />
          </mxGeometry>
        </mxCell>
        <mxCell id="vzgSoIwdPJrrRJUV_2uY-23" value="TRUE" style="edgeLabel;html=1;align=center;verticalAlign=middle;resizable=0;points=[];" vertex="1" connectable="0" parent="vzgSoIwdPJrrRJUV_2uY-22">
          <mxGeometry x="-0.3948" relative="1" as="geometry">
            <mxPoint as="offset" />
          </mxGeometry>
        </mxCell>
        <mxCell id="vzgSoIwdPJrrRJUV_2uY-16" value="Z &amp;gt; 0" style="rhombus;whiteSpace=wrap;html=1;" vertex="1" parent="1">
          <mxGeometry x="330" y="650" width="190" height="100" as="geometry" />
        </mxCell>
        <mxCell id="vzgSoIwdPJrrRJUV_2uY-24" style="edgeStyle=orthogonalEdgeStyle;rounded=0;orthogonalLoop=1;jettySize=auto;html=1;exitX=0.5;exitY=1;exitDx=0;exitDy=0;entryX=0.5;entryY=0;entryDx=0;entryDy=0;" edge="1" parent="1" target="vzgSoIwdPJrrRJUV_2uY-16">
          <mxGeometry relative="1" as="geometry">
            <mxPoint x="695" y="550" as="sourcePoint" />
            <Array as="points">
              <mxPoint x="695" y="620" />
              <mxPoint x="425" y="620" />
            </Array>
          </mxGeometry>
        </mxCell>
        <mxCell id="vzgSoIwdPJrrRJUV_2uY-19" value="COUNT++" style="whiteSpace=wrap;html=1;" vertex="1" parent="1">
          <mxGeometry x="635" y="520" width="120" height="60" as="geometry" />
        </mxCell>
        <mxCell id="vzgSoIwdPJrrRJUV_2uY-28" style="edgeStyle=orthogonalEdgeStyle;rounded=0;orthogonalLoop=1;jettySize=auto;html=1;entryX=0.5;entryY=0;entryDx=0;entryDy=0;" edge="1" parent="1">
          <mxGeometry relative="1" as="geometry">
            <mxPoint x="680" y="730" as="sourcePoint" />
            <mxPoint x="425" y="870" as="targetPoint" />
            <Array as="points">
              <mxPoint x="680" y="820" />
              <mxPoint x="425" y="820" />
            </Array>
          </mxGeometry>
        </mxCell>
        <mxCell id="vzgSoIwdPJrrRJUV_2uY-21" value="COUNT++" style="whiteSpace=wrap;html=1;" vertex="1" parent="1">
          <mxGeometry x="635" y="700" width="120" height="60" as="geometry" />
        </mxCell>
        <mxCell id="vzgSoIwdPJrrRJUV_2uY-33" value="" style="edgeStyle=orthogonalEdgeStyle;rounded=0;orthogonalLoop=1;jettySize=auto;html=1;" edge="1" parent="1" source="vzgSoIwdPJrrRJUV_2uY-29" target="vzgSoIwdPJrrRJUV_2uY-32">
          <mxGeometry relative="1" as="geometry" />
        </mxCell>
        <mxCell id="vzgSoIwdPJrrRJUV_2uY-29" value="COUNT" style="shape=document;whiteSpace=wrap;html=1;boundedLbl=1;" vertex="1" parent="1">
          <mxGeometry x="366" y="870" width="120" height="80" as="geometry" />
        </mxCell>
        <mxCell id="vzgSoIwdPJrrRJUV_2uY-32" value="END" style="ellipse;whiteSpace=wrap;html=1;" vertex="1" parent="1">
          <mxGeometry x="366" y="1000" width="120" height="80" as="geometry" />
        </mxCell>
      </root>
    </mxGraphModel>
  </diagram>
</mxfile>
